<svg xmlns="http://www.w3.org/2000/svg" width="1920" height="125" viewBox="0 0 1920 125">
  <g id="footer" transform="translate(0 -4929)">
    <rect id="Rectangle_48" data-name="Rectangle 48" width="1920" height="125" transform="translate(0 4929)" fill="#3c3b3a"/>
    <g id="social" transform="translate(75.245 1528)">
      <path id="Icon_awesome-facebook-square" data-name="Icon awesome-facebook-square" d="M22.423,2.25H2.691A2.691,2.691,0,0,0,0,4.941V24.673a2.691,2.691,0,0,0,2.691,2.691h7.694V18.825H6.853V14.807h3.532V11.744c0-3.484,2.074-5.408,5.251-5.408a21.4,21.4,0,0,1,3.112.271v3.419H16.995A2.009,2.009,0,0,0,14.729,12.2v2.609h3.856l-.617,4.019H14.729v8.538h7.694a2.691,2.691,0,0,0,2.691-2.691V4.941A2.691,2.691,0,0,0,22.423,2.25Z" transform="translate(813.755 3466.693)" fill="#f2f2f2"/>
      <path id="Icon_awesome-instagram" data-name="Icon awesome-instagram" d="M12.561,8.358A6.441,6.441,0,1,0,19,14.8,6.431,6.431,0,0,0,12.561,8.358Zm0,10.628A4.187,4.187,0,1,1,16.749,14.8a4.2,4.2,0,0,1-4.187,4.187ZM20.768,8.094a1.5,1.5,0,1,1-1.5-1.5A1.5,1.5,0,0,1,20.768,8.094Zm4.266,1.525A7.435,7.435,0,0,0,23,4.355a7.484,7.484,0,0,0-5.264-2.029c-2.074-.118-8.291-.118-10.365,0A7.473,7.473,0,0,0,2.112,4.35,7.459,7.459,0,0,0,.083,9.613c-.118,2.074-.118,8.291,0,10.365a7.435,7.435,0,0,0,2.029,5.264,7.493,7.493,0,0,0,5.264,2.029c2.074.118,8.291.118,10.365,0A7.435,7.435,0,0,0,23,25.242a7.483,7.483,0,0,0,2.029-5.264c.118-2.074.118-8.285,0-10.359ZM22.354,22.2a4.239,4.239,0,0,1-2.388,2.388c-1.654.656-5.578.5-7.405.5s-5.757.146-7.405-.5A4.239,4.239,0,0,1,2.768,22.2c-.656-1.654-.5-5.578-.5-7.405s-.146-5.757.5-7.405A4.239,4.239,0,0,1,5.156,5.006c1.654-.656,5.578-.5,7.405-.5s5.757-.146,7.405.5a4.239,4.239,0,0,1,2.388,2.388c.656,1.654.5,5.578.5,7.405S23.01,20.556,22.354,22.2Z" transform="translate(851.023 3466.701)" fill="#f2f2f2"/>
      <path id="Icon_awesome-twitter-square" data-name="Icon awesome-twitter-square" d="M22.423,2.25H2.691A2.691,2.691,0,0,0,0,4.941V24.673a2.691,2.691,0,0,0,2.691,2.691H22.423a2.691,2.691,0,0,0,2.691-2.691V4.941A2.691,2.691,0,0,0,22.423,2.25Zm-2.741,8.9c.011.157.011.32.011.476a10.389,10.389,0,0,1-10.46,10.46A10.412,10.412,0,0,1,3.588,20.44a7.745,7.745,0,0,0,.886.045,7.371,7.371,0,0,0,4.563-1.57A3.681,3.681,0,0,1,5.6,16.365,3.962,3.962,0,0,0,7.259,16.3a3.677,3.677,0,0,1-2.943-3.61v-.045a3.674,3.674,0,0,0,1.659.465,3.669,3.669,0,0,1-1.637-3.061,3.631,3.631,0,0,1,.5-1.855,10.439,10.439,0,0,0,7.579,3.846A3.684,3.684,0,0,1,18.689,8.68a7.2,7.2,0,0,0,2.332-.886,3.667,3.667,0,0,1-1.614,2.024,7.316,7.316,0,0,0,2.119-.572A7.739,7.739,0,0,1,19.682,11.152Z" transform="translate(888.281 3466.693)" fill="#f2f2f2"/>
      <path id="Icon_awesome-youtube" data-name="Icon awesome-youtube" d="M31.025,7.868a3.847,3.847,0,0,0-2.707-2.724C25.931,4.5,16.357,4.5,16.357,4.5S6.784,4.5,4.4,5.144A3.847,3.847,0,0,0,1.69,7.868a40.354,40.354,0,0,0-.64,7.417A40.354,40.354,0,0,0,1.69,22.7,3.789,3.789,0,0,0,4.4,25.382c2.388.644,11.961.644,11.961.644s9.573,0,11.961-.644A3.789,3.789,0,0,0,31.025,22.7a40.354,40.354,0,0,0,.64-7.417,40.354,40.354,0,0,0-.64-7.417Zm-17.8,11.969v-9.1l8,4.552-8,4.552Z" transform="translate(924.494 3466.237)" fill="#f2f2f2"/>
      <text id="Follow_us" data-name="Follow us" transform="translate(832.255 3456)" fill="#f2f2f2" font-size="24" font-family="Raleway-Regular, Raleway"><tspan x="0" y="0">Follow us</tspan></text>
    </g>
    <g id="btn" transform="translate(0 1589.459)">
      <path id="up" d="M.563,25.459a24.9,24.9,0,1,1,24.9,24.9A24.892,24.892,0,0,1,.563,25.459Zm14.416,2.9,7.268-7.579V39.112a2.4,2.4,0,0,0,2.409,2.409h1.606a2.4,2.4,0,0,0,2.409-2.409V20.781l7.268,7.579a2.412,2.412,0,0,0,3.443.04l1.094-1.1a2.4,2.4,0,0,0,0-3.4L27.166,10.571a2.4,2.4,0,0,0-3.4,0L10.431,23.893a2.4,2.4,0,0,0,0,3.4l1.094,1.1A2.424,2.424,0,0,0,14.979,28.361Z" transform="translate(1826.978 3365.978)" fill="#26a682"/>
      <text id="back_to_top" data-name="back to top" transform="translate(1811 3434)" fill="#f2f2f2" font-size="16" font-family="Raleway-Regular, Raleway"><tspan x="0" y="0">back to top</tspan></text>
    </g>
  </g>
</svg>
